<mxfile host="app.diagrams.net" agent="Mozilla/5.0 (Windows NT 10.0; Win64; x64) AppleWebKit/537.36 (KHTML, like Gecko) Chrome/136.0.0.0 Safari/537.36" version="27.0.3">
  <diagram name="Page-1" id="m-3RJd7ZKulhuTIFf9Rr">
    <mxGraphModel dx="1226" dy="661" grid="1" gridSize="10" guides="1" tooltips="1" connect="1" arrows="1" fold="1" page="1" pageScale="1" pageWidth="850" pageHeight="1100" math="0" shadow="0">
      <root>
        <mxCell id="0" />
        <mxCell id="1" parent="0" />
        <mxCell id="G9hpcY-QcRFtapVnU-LY-10" value="" style="rounded=0;whiteSpace=wrap;html=1;" vertex="1" parent="1">
          <mxGeometry x="240" y="40" width="380" height="460" as="geometry" />
        </mxCell>
        <mxCell id="G9hpcY-QcRFtapVnU-LY-11" style="edgeStyle=orthogonalEdgeStyle;rounded=0;orthogonalLoop=1;jettySize=auto;html=1;exitX=0.5;exitY=1;exitDx=0;exitDy=0;" edge="1" parent="1" source="G9hpcY-QcRFtapVnU-LY-10" target="G9hpcY-QcRFtapVnU-LY-10">
          <mxGeometry relative="1" as="geometry" />
        </mxCell>
        <mxCell id="G9hpcY-QcRFtapVnU-LY-12" value="" style="rounded=0;whiteSpace=wrap;html=1;align=right;" vertex="1" parent="1">
          <mxGeometry x="250" y="50" width="360" height="70" as="geometry" />
        </mxCell>
        <mxCell id="G9hpcY-QcRFtapVnU-LY-13" value="" style="rounded=0;whiteSpace=wrap;html=1;" vertex="1" parent="1">
          <mxGeometry x="250" y="130" width="360" height="360" as="geometry" />
        </mxCell>
        <mxCell id="G9hpcY-QcRFtapVnU-LY-14" value="7" style="whiteSpace=wrap;html=1;aspect=fixed;" vertex="1" parent="1">
          <mxGeometry x="260" y="140" width="60" height="60" as="geometry" />
        </mxCell>
        <mxCell id="G9hpcY-QcRFtapVnU-LY-15" value="8" style="whiteSpace=wrap;html=1;aspect=fixed;" vertex="1" parent="1">
          <mxGeometry x="330" y="140" width="60" height="60" as="geometry" />
        </mxCell>
        <mxCell id="G9hpcY-QcRFtapVnU-LY-16" value="9" style="whiteSpace=wrap;html=1;aspect=fixed;" vertex="1" parent="1">
          <mxGeometry x="400" y="140" width="60" height="60" as="geometry" />
        </mxCell>
        <mxCell id="G9hpcY-QcRFtapVnU-LY-17" value="4" style="whiteSpace=wrap;html=1;aspect=fixed;" vertex="1" parent="1">
          <mxGeometry x="260" y="210" width="60" height="60" as="geometry" />
        </mxCell>
        <mxCell id="G9hpcY-QcRFtapVnU-LY-18" value="5" style="whiteSpace=wrap;html=1;aspect=fixed;" vertex="1" parent="1">
          <mxGeometry x="330" y="210" width="60" height="60" as="geometry" />
        </mxCell>
        <mxCell id="G9hpcY-QcRFtapVnU-LY-19" value="6" style="whiteSpace=wrap;html=1;aspect=fixed;" vertex="1" parent="1">
          <mxGeometry x="400" y="210" width="60" height="60" as="geometry" />
        </mxCell>
        <mxCell id="G9hpcY-QcRFtapVnU-LY-20" value="1" style="whiteSpace=wrap;html=1;aspect=fixed;" vertex="1" parent="1">
          <mxGeometry x="260" y="280" width="60" height="60" as="geometry" />
        </mxCell>
        <mxCell id="G9hpcY-QcRFtapVnU-LY-21" value="2" style="whiteSpace=wrap;html=1;aspect=fixed;" vertex="1" parent="1">
          <mxGeometry x="330" y="280" width="60" height="60" as="geometry" />
        </mxCell>
        <mxCell id="G9hpcY-QcRFtapVnU-LY-22" value="3" style="whiteSpace=wrap;html=1;aspect=fixed;" vertex="1" parent="1">
          <mxGeometry x="400" y="280" width="60" height="60" as="geometry" />
        </mxCell>
        <mxCell id="G9hpcY-QcRFtapVnU-LY-24" value="/" style="whiteSpace=wrap;html=1;aspect=fixed;" vertex="1" parent="1">
          <mxGeometry x="540" y="280" width="60" height="60" as="geometry" />
        </mxCell>
        <mxCell id="G9hpcY-QcRFtapVnU-LY-25" value="0" style="whiteSpace=wrap;html=1;aspect=fixed;" vertex="1" parent="1">
          <mxGeometry x="260" y="350" width="60" height="60" as="geometry" />
        </mxCell>
        <mxCell id="G9hpcY-QcRFtapVnU-LY-26" value="*" style="whiteSpace=wrap;html=1;aspect=fixed;" vertex="1" parent="1">
          <mxGeometry x="470" y="210" width="60" height="60" as="geometry" />
        </mxCell>
        <mxCell id="G9hpcY-QcRFtapVnU-LY-27" value="-" style="whiteSpace=wrap;html=1;aspect=fixed;" vertex="1" parent="1">
          <mxGeometry x="470" y="280" width="60" height="60" as="geometry" />
        </mxCell>
        <mxCell id="G9hpcY-QcRFtapVnU-LY-28" value="log" style="whiteSpace=wrap;html=1;aspect=fixed;" vertex="1" parent="1">
          <mxGeometry x="330" y="420" width="60" height="60" as="geometry" />
        </mxCell>
        <mxCell id="G9hpcY-QcRFtapVnU-LY-35" value="+" style="whiteSpace=wrap;html=1;aspect=fixed;" vertex="1" parent="1">
          <mxGeometry x="540" y="210" width="60" height="60" as="geometry" />
        </mxCell>
        <mxCell id="G9hpcY-QcRFtapVnU-LY-36" value="&lt;font style=&quot;font-size: 32px;&quot;&gt;&amp;lt;-&lt;/font&gt;" style="rounded=0;whiteSpace=wrap;html=1;" vertex="1" parent="1">
          <mxGeometry x="540" y="350" width="60" height="60" as="geometry" />
        </mxCell>
        <mxCell id="G9hpcY-QcRFtapVnU-LY-37" value="&lt;font style=&quot;font-size: 18px;&quot;&gt;=&lt;/font&gt;" style="rounded=0;whiteSpace=wrap;html=1;" vertex="1" parent="1">
          <mxGeometry x="470" y="420" width="130" height="60" as="geometry" />
        </mxCell>
        <mxCell id="G9hpcY-QcRFtapVnU-LY-38" value="C" style="rounded=0;whiteSpace=wrap;html=1;" vertex="1" parent="1">
          <mxGeometry x="400" y="420" width="60" height="60" as="geometry" />
        </mxCell>
        <mxCell id="G9hpcY-QcRFtapVnU-LY-39" value="&lt;font style=&quot;font-size: 18px;&quot;&gt;e&lt;/font&gt;" style="whiteSpace=wrap;html=1;aspect=fixed;" vertex="1" parent="1">
          <mxGeometry x="260" y="420" width="60" height="60" as="geometry" />
        </mxCell>
        <mxCell id="G9hpcY-QcRFtapVnU-LY-40" value="x^y" style="whiteSpace=wrap;html=1;aspect=fixed;" vertex="1" parent="1">
          <mxGeometry x="470" y="350" width="60" height="60" as="geometry" />
        </mxCell>
        <mxCell id="G9hpcY-QcRFtapVnU-LY-41" value="1/x" style="rounded=0;whiteSpace=wrap;html=1;" vertex="1" parent="1">
          <mxGeometry x="400" y="350" width="60" height="60" as="geometry" />
        </mxCell>
        <mxCell id="G9hpcY-QcRFtapVnU-LY-42" value="(" style="whiteSpace=wrap;html=1;aspect=fixed;" vertex="1" parent="1">
          <mxGeometry x="470" y="140" width="60" height="60" as="geometry" />
        </mxCell>
        <mxCell id="G9hpcY-QcRFtapVnU-LY-43" value=")" style="whiteSpace=wrap;html=1;aspect=fixed;" vertex="1" parent="1">
          <mxGeometry x="540" y="140" width="60" height="60" as="geometry" />
        </mxCell>
        <mxCell id="G9hpcY-QcRFtapVnU-LY-44" value="&lt;font style=&quot;font-size: 32px;&quot;&gt;.&lt;/font&gt;" style="whiteSpace=wrap;html=1;aspect=fixed;" vertex="1" parent="1">
          <mxGeometry x="330" y="350" width="60" height="60" as="geometry" />
        </mxCell>
      </root>
    </mxGraphModel>
  </diagram>
</mxfile>
